<svg xmlns="http://www.w3.org/2000/svg" viewBox="0 0 512.008 512.008" fill="#ffffff">
  <path d="M256.002 0c-70.592 0-128 57.408-128 128s57.408 128 128 128 128-57.408 128-128-57.408-128-128-128zm0 192c-35.296 0-64-28.704-64-64s28.704-64 64-64 64 28.704 64 64-28.704 64-64 64z"/>
  <path d="M425.73 252.448c-12.512-12.512-32.736-12.512-45.248 0-68.608 68.608-180.288 68.608-248.928 0-12.512-12.512-32.736-12.512-45.248 0s-12.512 32.736 0 45.28c39.808 39.808 90.272 62.496 142.304 68.416l-91.232 91.232c-12.512 12.512-12.512 32.736 0 45.248s32.736 12.512 45.248 0l73.376-73.376 73.376 73.376c6.24 6.24 14.432 9.376 22.624 9.376 8.192 0 16.384-3.136 22.624-9.376 12.512-12.512 12.512-32.736 0-45.248l-91.232-91.232c52.032-5.92 102.496-28.608 142.304-68.416 12.512-12.512 12.512-32.768.032-45.28z"/>
</svg>
