<svg width="38" height="22" viewBox="0 0 38 22" fill="none" xmlns="http://www.w3.org/2000/svg">
<g clip-path="url(#clip0)">
<path fill-rule="evenodd" clip-rule="evenodd" d="M18.5872 21.9039H20.8544C20.8544 21.9039 21.5393 21.832 21.8936 21.4485C22.2242 21.0891 22.2006 20.442 22.2006 20.442C22.2006 20.442 22.1534 17.3505 23.5704 16.8952C24.9638 16.4398 26.7587 19.8908 28.6481 21.2089C30.0887 22.2154 31.1751 21.9997 31.1751 21.9997L36.2528 21.9279C36.2528 21.9279 38.8979 21.7601 37.6462 19.6512C37.5518 19.4834 36.9141 18.0934 33.8675 15.2176C30.6792 12.222 31.1043 12.7013 34.9539 7.5248C37.292 4.3614 38.213 2.44419 37.9296 1.60541C37.6462 0.81456 35.9458 1.03025 35.9458 1.03025L30.2304 1.05421C30.2304 1.05421 29.8053 1.00628 29.4983 1.198C29.1913 1.38972 29.0023 1.8211 29.0023 1.8211C29.0023 1.8211 28.1049 4.26554 26.9004 6.35051C24.3498 10.7122 23.3106 10.9278 22.9091 10.6642C21.9408 10.0411 22.177 8.12393 22.177 6.75792C22.177 2.51609 22.8146 0.742665 20.9489 0.287327C20.3112 0.119571 19.8625 0.0237107 18.2802 -0.000254423C16.2491 -0.0242196 14.525 -0.000254415 13.5331 0.503014C12.8718 0.81456 12.3759 1.55748 12.6829 1.58144C13.0608 1.62938 13.911 1.8211 14.3597 2.44419C14.9501 3.259 14.9265 5.05639 14.9265 5.05639C14.9265 5.05639 15.2572 10.0651 14.1472 10.6882C13.3678 11.1196 12.3286 10.2329 10.0614 6.25465C8.90415 4.21761 8.03031 1.96489 8.03031 1.96489C8.03031 1.96489 7.86499 1.53351 7.55797 1.31783C7.20371 1.05421 6.68413 0.958351 6.68413 0.958351L1.25219 0.982316C1.25219 0.982316 0.425589 1.00628 0.142183 1.36576C-0.117605 1.67731 0.118566 2.34833 0.118566 2.34833C0.118566 2.34833 4.36965 12.4377 9.18755 17.5183C13.5803 22.2154 18.5872 21.9039 18.5872 21.9039Z" fill="white"/>
</g>
<defs>
<clipPath id="clip0">
<rect width="38" height="22" fill="white"/>
</clipPath>
</defs>
</svg>
